<svg width="25" height="24" viewBox="0 0 25 24" fill="none" xmlns="http://www.w3.org/2000/svg">
<path d="M12.5 2.25C14.4883 2.25248 16.3948 3.04323 17.8008 4.44922C19.1191 5.76749 19.8963 7.52575 19.9902 9.37891L20 9.75098C19.9997 13.0186 18.2573 15.9461 16.3896 18.1338C14.5324 20.3094 12.6341 21.6561 12.501 21.749L12.5 21.75L12.499 21.749L12.0967 21.4512C11.4197 20.9313 10.0035 19.7657 8.61035 18.1338C6.74274 15.9461 5.00035 13.0186 5 9.75098C5.00226 7.76232 5.79303 5.85541 7.19922 4.44922C8.60521 3.04323 10.5117 2.25248 12.5 2.25ZM12.5 6C11.5054 6 10.5519 6.39537 9.84863 7.09863C9.14537 7.80189 8.75 8.75544 8.75 9.75C8.75 10.4915 8.96992 11.2164 9.38184 11.833C9.79383 12.4496 10.3794 12.931 11.0645 13.2148C11.7496 13.4987 12.504 13.5724 13.2314 13.4277C13.9589 13.283 14.6269 12.9258 15.1514 12.4014C15.6758 11.8769 16.033 11.2089 16.1777 10.4814C16.3224 9.75405 16.2487 8.99965 15.9648 8.31445C15.681 7.62936 15.1996 7.04383 14.583 6.63184C13.9664 6.21992 13.2415 6 12.5 6Z" fill="white" stroke="black" stroke-width="1.5"/>
</svg>
